<svg width="358" height="174" viewBox="0 0 358 174" fill="none" xmlns="http://www.w3.org/2000/svg">
<path d="M213.528 117.87C209.346 118.367 205.201 119.116 201.046 119.789C195.052 120.931 189.189 122.629 183.271 124.106C162.714 130.017 142.989 138.392 122.76 145.284C115.879 147.578 109.016 149.959 101.993 151.788C96.0785 153.193 90.2055 154.887 84.1455 155.546C77.0195 156.337 69.8935 157.292 62.7165 157.148C55.0695 156.671 47.3665 155.836 40.0335 153.483C35.9615 152.127 32.0315 150.356 28.2315 148.369C23.6215 145.929 19.4395 142.754 15.6325 139.203C14.3805 138.033 13.3315 136.667 12.0165 135.566C12.7965 138.851 14.4765 141.884 16.4265 144.621C19.7115 148.79 23.6215 152.503 28.1245 155.332C33.1215 158.3 38.5745 160.495 44.2125 161.882C51.9845 163.611 59.9625 164.232 67.9095 164.029C72.3335 163.628 76.7745 163.394 81.1715 162.728C84.7115 162.203 88.2905 161.941 91.7865 161.147C94.8885 160.643 97.8905 159.67 100.965 159.014C106.635 157.772 112.173 156.033 117.698 154.27C131.846 149.649 145.619 143.972 159.357 138.268C163.277 136.66 167.245 135.179 171.158 133.547C176.583 131.287 182.146 129.382 187.64 127.301C195.207 124.516 203.003 122.439 210.816 120.468C216.151 119.295 221.562 118.546 226.969 117.815C227.49 117.794 227.959 117.559 228.373 117.249C223.408 116.966 218.476 117.666 213.528 117.87ZM77.9175 60.3582C71.2565 67.0392 66.5225 75.4042 63.1615 84.1622C61.3285 89.4042 59.9765 94.8492 59.4755 100.385C59.3895 103.173 59.2205 106.03 59.9865 108.746C60.5665 110.678 62.1575 112.059 63.7965 113.115C66.9395 115.102 70.4395 116.566 74.1175 117.18C78.5485 118.032 83.0655 118.319 87.5725 118.187C90.2405 118.239 92.8765 117.777 95.5445 117.77C102.183 116.921 108.86 116.224 115.379 114.65C115.893 114.633 115.845 113.808 115.341 113.788C112.101 112.804 108.943 111.427 106.286 109.291C101.765 105.916 98.5115 100.971 96.9275 95.5782C94.7505 88.1342 94.9845 80.0872 97.1935 72.6782C97.8185 70.5902 98.8295 68.6542 99.5225 66.5972C97.5485 65.3552 95.7515 63.7682 94.5255 61.7632C92.4625 58.2672 91.8445 54.1472 91.8105 50.1472C91.7035 50.0572 91.4925 49.8782 91.3895 49.7882C86.4995 52.7562 81.8925 56.2342 77.9175 60.3582ZM136.036 45.4332C133.099 45.8852 130.345 47.0592 127.654 48.2732C123.461 50.1582 119.855 53.0842 116.483 56.1592C114.982 57.4112 113.743 58.9302 112.47 60.4032C108.453 65.2762 105.24 70.9422 103.877 77.1532C103.018 80.4522 103.166 83.8932 103.284 87.2682C103.601 92.5932 106.576 98.1692 111.825 100.022C121.894 103.294 133.306 101.33 142.075 95.5222C146.93 92.1782 151.182 87.8682 154.16 82.7582C156.693 78.6682 158.252 74.0242 159.118 69.3062C159.374 66.2182 159.288 63.1092 159.205 60.0102C158.856 55.8102 157.434 51.4692 154.311 48.5052C151.868 46.1992 148.466 45.3572 145.215 45.0612C142.151 44.9502 139.066 44.8982 136.036 45.4332ZM214.308 46.6452C213.048 47.6252 212.106 48.9262 210.905 49.9642C211.123 48.3912 211.585 46.7892 211.219 45.2022C210.464 43.0732 208.452 41.4652 206.195 41.2612C201.736 40.8752 197.202 42.0552 193.354 44.3012C190.849 45.7402 188.406 47.3522 186.404 49.4542C185.431 50.3852 184.71 51.5592 183.633 52.3832C184.085 50.3822 184.934 48.2602 184.123 46.2272C183.485 44.5812 181.766 43.8012 180.165 43.4042C175.848 42.6692 171.434 44.0432 167.818 46.3822C166.269 47.3932 164.785 49.0432 164.995 51.0242C165.116 53.4392 164.726 55.8272 164.65 58.2362C164.246 61.3762 163.601 64.4852 162.89 67.5702C160.492 76.9812 157.738 86.2982 154.801 95.5572C154.55 96.5132 154.022 97.6652 154.85 98.5042C158.905 98.7142 162.866 97.5382 166.904 97.3822C168.356 97.1172 170.323 97.0722 170.958 95.4502C172.101 92.3162 173.015 89.1042 174.15 85.9702C176.352 79.7452 177.874 73.1752 181.404 67.5152C183.827 63.9472 186.46 60.4652 189.796 57.6872C190.942 56.8002 192.229 55.8072 193.772 55.9762C194.193 56.9072 193.634 57.8802 193.43 58.7982C189.869 69.2722 186.139 79.6862 182.495 90.1322C181.991 91.4542 181.325 92.8202 181.67 94.2772C182.384 94.3702 183.109 94.4592 183.833 94.3802C187.184 94.0352 190.494 93.4002 193.837 92.9932C195.625 92.8102 197.585 92.9102 199.162 91.9092C200.045 90.6572 200.301 89.0802 200.853 87.6682C203.289 80.9432 205.736 74.2202 208.203 67.5052C209.546 63.7612 211.319 60.0442 214.215 57.2392C215.678 55.7862 217.169 54.2572 219.087 53.4122C219.612 53.0982 220.188 53.4602 220.623 53.7712C220.678 55.2162 220.164 56.5832 219.677 57.9182C215.605 68.5642 211.82 79.3212 207.648 89.9292C207.358 90.5772 207.275 91.3262 207.596 91.9822C211.419 91.9402 215.191 91.1712 219.001 90.8362C220.875 90.4672 222.804 90.4772 224.671 90.0672C225.323 89.8422 225.592 89.1762 225.83 88.5902C228.815 80.7802 231.779 72.9682 234.616 65.1072C236.483 60.2032 238.685 55.3062 239.216 50.0332C239.499 47.0692 238.833 43.6222 236.197 41.8582C233.408 39.9462 229.864 40.4162 226.676 40.5122C222.062 41.2652 217.869 43.6982 214.308 46.6452ZM321.353 35.0742C316.615 35.7672 311.943 37.2722 307.902 39.8742C300.734 44.8952 295.544 52.4592 292.891 60.7582C291.113 65.5032 290.554 70.6452 291.124 75.6702C291.7 78.6412 292.894 81.5742 294.975 83.8102C297.898 86.8372 302.035 88.4312 306.135 89.0522C313.975 90.4502 322.205 88.9732 329.249 85.3152C332.62 83.5692 335.498 81.0252 338.114 78.3062C345.488 70.6182 349.177 59.5272 347.721 48.9602C347.193 45.4472 345.613 42.0342 343.055 39.5462C339.287 36.1752 334.114 34.7742 329.138 34.8982C326.543 34.5492 323.941 34.9082 321.353 35.0742ZM258.872 10.4522C256.608 12.3952 256.029 15.4592 255.08 18.1412C251.505 28.1692 248.081 38.2492 244.534 48.2872C240.027 61.1042 235.437 73.8892 230.934 86.7092C230.692 87.5722 230.158 88.7032 230.765 89.5012C233.657 89.7012 236.524 89.1282 239.413 89.2002C244.006 89.0762 248.62 89.3422 253.192 88.8282C258.782 88.2892 264.369 87.1512 269.542 84.9042C275.419 82.4372 280.782 78.6302 284.795 73.6512C287.783 70.3792 289.754 66.3662 291.438 62.3152C293.236 57.8322 294.516 53.1052 294.802 48.2732C294.927 45.2402 294.402 41.9072 292.262 39.6012C290.213 37.2652 286.962 36.2892 283.932 36.3782C277.928 36.2302 272.123 38.7902 267.548 42.5592C266.436 43.3802 265.536 44.4572 264.359 45.1852C266.126 40.6022 268.424 36.2372 270.125 31.6232C272.748 25.0352 275.723 18.5932 278.242 11.9642C278.877 10.4042 279.032 8.1852 277.352 7.21919C275.063 5.95219 272.299 5.8932 269.766 6.24919C265.812 6.43919 261.878 7.84719 258.872 10.4522ZM112.021 5.29619C101.752 6.59418 91.8415 9.90318 82.3995 14.0692C77.7375 16.0462 73.3655 18.6172 68.9415 21.0602C61.7635 25.3052 54.8415 30.0152 48.5055 35.4432C46.2595 37.4452 43.7885 39.2462 41.8415 41.5482C41.4795 41.5482 41.2385 41.8342 40.9895 42.0512C32.6665 50.1892 24.9705 59.0852 19.0695 69.1612C13.5455 78.2232 9.40349 88.3482 8.41049 98.9872C8.00249 106.624 8.27548 114.492 11.0845 121.7C13.5965 128.419 17.8625 134.465 23.3835 139.044C27.1105 142.157 31.3445 144.597 35.7515 146.605C40.1195 148.31 44.5645 149.928 49.2235 150.625C56.4635 152.354 63.9615 152.127 71.3535 152.013C74.3525 152.058 77.2955 151.364 80.2875 151.236C82.6655 150.815 85.0705 150.543 87.4375 150.056C94.5225 148.824 101.427 146.771 108.277 144.628C122.471 139.921 136.54 134.855 150.657 129.931C163.28 125.445 176.003 121.176 189.003 117.908C194.079 116.766 199.134 115.534 204.231 114.499C205.608 114.505 206.923 114.064 208.269 113.836C216.841 112.373 225.533 111.503 234.236 111.531C239.471 111.527 244.731 111.445 249.924 112.214C256.011 112.79 261.961 114.55 267.444 117.238C271.44 119.226 274.96 122.042 278.162 125.127C282.859 129.803 286.134 135.614 289.888 141.015C293.929 146.64 299.171 151.637 305.707 154.187C309.275 155.736 313.226 155.871 317.057 155.791C322.112 155.805 327.22 154.725 331.678 152.289C336.744 149.752 341.075 145.118 342.027 139.386C342.227 137.205 342.234 134.997 342.024 132.819C341.275 127.622 338.438 122.922 334.777 119.243C329.97 114.257 323.972 110.585 317.757 107.618C311.349 104.746 304.744 102.283 297.918 100.609C284.464 97.1442 270.629 95.2432 256.757 94.6732C239.502 94.3422 222.11 94.6632 205.146 98.1382C203.324 98.6002 201.384 98.6382 199.659 99.4292C198.282 99.4942 196.964 99.9262 195.628 100.215C174.847 105.261 154.422 111.69 133.558 116.414C126.856 117.87 120.127 119.199 113.371 120.389C101.903 122.411 90.2405 123.512 78.5935 122.894C75.0905 122.56 71.6195 121.918 68.2375 120.948C63.7035 119.344 59.0965 117.473 55.5415 114.122C51.3175 110.464 48.7125 105.261 47.4805 99.8742C46.4735 95.4052 46.5145 90.7882 46.7145 86.2362C47.0455 82.6582 47.8675 79.1482 48.7435 75.6702C51.5975 65.1172 57.3845 55.5342 64.6145 47.4042C67.1265 44.3672 70.1045 41.7722 72.8545 38.9602C79.1385 33.6352 85.5955 28.2522 93.1945 24.8872C98.9875 22.2262 104.937 19.8422 111.11 18.1992C113.55 17.4952 116.124 17.5682 118.63 17.7472C120.552 18.3412 120.434 20.6562 120.079 22.2442C119.051 25.7052 116.856 28.6832 114.364 31.2432C110.686 35.4952 106.113 38.8592 102.424 43.1042C100.896 44.8602 99.9125 47.0592 99.5125 49.3472C99.3645 51.2792 99.2295 53.6192 100.816 55.0402C101.983 56.3312 103.874 56.1862 105.437 55.9452C109.64 54.7712 113.319 52.3322 116.997 50.0682C122.715 46.1442 128.092 41.6512 132.616 36.3752C135.767 32.9142 138.199 28.8492 139.939 24.5142C140.974 21.4262 141.661 18.0682 140.922 14.8352C140.394 11.8572 138.696 8.96819 136.001 7.48419C133.741 6.16319 131.132 5.68019 128.61 5.1272C125.069 4.73719 121.501 4.47919 117.943 4.74419C115.976 5.04118 113.971 4.86519 112.021 5.29619ZM110.958 0.783188C116.211 -0.220818 121.597 -0.0318069 126.915 0.127197C132.126 0.683197 137.551 1.82819 141.785 5.10719C146.326 8.63319 148.756 14.1962 149.711 19.7452C150.395 24.5942 149.829 29.7082 147.513 34.0802C146.45 36.2542 144.935 38.1522 143.541 40.1192C145.129 40.1572 146.72 40.0812 148.307 40.1502C152.624 40.4542 156.875 42.1522 160.061 45.1192C161.013 44.6602 161.672 43.7912 162.545 43.2142C166.417 40.4882 170.903 38.6452 175.562 37.8242C178.381 37.6692 181.328 37.4692 184.027 38.4902C185.538 38.9732 186.849 39.8842 188.271 40.5572C192.202 38.2492 196.56 36.5232 201.112 36.0402C204.352 36.0022 207.706 35.6602 210.836 36.7162C212.417 37.1692 213.866 37.9622 215.26 38.8212C216.396 38.3182 217.455 37.6592 218.594 37.1622C221.348 35.9432 224.329 35.2842 227.321 35.0012C230.002 34.9602 232.749 34.7432 235.368 35.4882C237.439 36.0092 239.333 37.0242 241.169 38.0932C241.245 38.0552 241.4 37.9762 241.476 37.9382C243.295 32.0132 245.317 26.1532 247.367 20.3042C248.872 16.2462 249.917 11.8702 252.702 8.44418C255.511 5.02718 259.752 3.19218 263.948 2.13618C268.911 0.993187 274.297 0.672195 279.097 2.65019C285.047 4.88219 288.346 11.9392 286.865 18.0092C286.092 22.5092 283.798 26.5432 282.569 30.8952C287.135 30.8152 291.948 31.3782 295.838 33.9732C297.494 34.9842 298.66 36.5612 300.085 37.8412C304.682 34.0732 310.217 31.5372 316.046 30.3882C320.777 29.2592 325.68 29.2042 330.519 29.4942C335.263 30.0112 340.036 31.1542 344.156 33.6522C349.609 37.0342 353.253 42.7622 355.168 48.7882C356.276 52.5422 357.035 56.4312 357.031 60.3582C357.049 64.2132 357.169 68.1162 356.276 71.8982C354.36 81.5362 348.539 90.2252 340.616 95.9812C335.288 99.7292 328.917 101.579 322.578 102.707C323.137 103.532 324.176 103.759 324.997 104.243C331.015 107.193 336.64 110.992 341.361 115.762C346.637 121.179 350.413 128.178 351.462 135.707C352.224 141.363 351.852 147.371 349.264 152.551C346.555 157.924 341.665 162.03 336.099 164.211C327.83 167.421 318.527 168.025 309.983 165.557C303.495 163.901 297.818 160.043 292.939 155.564C284.212 147.271 276.313 138.123 267.261 130.165C263.596 126.991 258.986 125.12 254.282 124.137C249.182 122.995 243.92 123.184 238.73 123.257C230.282 123.357 221.969 125.055 213.78 126.991C199.8 130.552 186.311 135.787 173.053 141.422C159.667 147.181 146.288 152.975 132.688 158.221C112.856 165.94 92.0555 172.034 70.6665 172.752C65.7255 173.373 60.7565 172.821 55.8175 172.559C49.4065 171.81 42.9635 170.799 36.8695 168.604C30.6685 166.347 24.7015 163.273 19.6395 159.004C9.31049 150.736 3.04748 138.154 0.939483 125.238C0.366485 121.466 0.00349361 117.659 0.0344842 113.839C-0.417512 99.2252 3.59648 84.6212 10.7425 71.9122C17.8175 58.9712 27.4865 47.5942 38.3045 37.6312C48.7365 28.1382 60.3935 19.9662 72.9965 13.6132C80.7225 9.6692 88.7525 6.27319 97.0905 3.84718C101.634 2.50118 106.248 1.36318 110.958 0.783188Z" fill="#03161A"/>
<path d="M306.335 114.847C309.189 115.868 311.446 118.029 313.778 119.892C315.514 121.59 317.512 123.112 318.796 125.203C317.078 124.706 315.759 123.433 314.306 122.46C312.45 121.228 311.235 119.316 309.551 117.901C308.447 116.914 307.167 116.096 306.335 114.847Z" fill="#03161A"/>
<path d="M189.003 117.908L165.402 107.977Z" fill="#FBD002"/>
<path d="M272.293 51.2895C273.104 51.1515 274.308 51.0375 274.729 51.9145C275.306 55.4755 273.856 58.9535 272.165 62.0075C269.857 66.4975 266.057 70.0695 261.844 72.7715C259.38 74.3235 256.668 75.5075 253.831 76.1665C253.724 76.0255 253.51 75.7385 253.403 75.5975C253.959 72.8025 255.291 70.2625 256.329 67.6325C257.278 65.4755 258.165 63.2845 259.287 61.2075C260.878 58.7395 263.041 56.6905 265.305 54.8405C267.338 53.1735 269.691 51.8105 272.293 51.2895Z" fill="#03161A"/>
<path d="M322.706 47.7317C323.983 47.2347 325.384 47.3077 326.733 47.3317C328.465 47.2697 329.804 49.0467 329.732 50.6857C329.759 52.5217 329.835 54.3777 329.552 56.1997C328.4 60.6067 326.395 64.9137 323.137 68.1607C320.808 70.6457 317.726 72.5437 314.31 72.9647C313.092 73.0127 311.694 73.0887 310.773 72.1397C309.079 70.4697 309.158 67.7747 309.52 65.5937C310.204 61.0007 312.609 56.8697 315.608 53.4017C317.54 51.0587 319.756 48.7357 322.706 47.7317Z" fill="#03161A"/>
<path d="M137.123 58.2396C138.776 58.0636 140.715 57.8156 142.103 58.9576C143.918 60.4236 144.104 63.0326 143.911 65.1926C143.193 70.8316 140.301 76.1116 136.209 80.0146C133.824 82.1226 130.842 83.8556 127.595 83.9756C125.877 84.0966 124.12 83.0306 123.551 81.3846C122.619 78.5756 123.275 75.5426 124.282 72.8466C125.694 69.0686 127.933 65.6516 130.542 62.5946C132.302 60.6106 134.497 58.8716 137.123 58.2396Z" fill="#03161A"/>
<path d="M272.293 51.2895C269.691 51.8105 267.338 53.1735 265.305 54.8405C263.041 56.6905 260.878 58.7395 259.287 61.2075C258.165 63.2845 257.278 65.4755 256.329 67.6325C255.291 70.2625 253.959 72.8025 253.403 75.5975C253.51 75.7385 253.724 76.0255 253.831 76.1665C256.668 75.5075 259.38 74.3235 261.844 72.7715C266.057 70.0695 269.857 66.4975 272.165 62.0075C273.856 58.9535 275.306 55.4755 274.729 51.9145C274.308 51.0375 273.104 51.1515 272.293 51.2895ZM258.873 10.4525C261.878 7.84649 265.812 6.43848 269.767 6.24948C272.3 5.89348 275.064 5.95248 277.352 7.21848C279.033 8.18448 278.877 10.4035 278.242 11.9635C275.723 18.5925 272.749 25.0355 270.126 31.6235C268.425 36.2365 266.126 40.6025 264.36 45.1845C265.536 44.4565 266.437 43.3805 267.548 42.5585C272.124 38.7905 277.928 36.2305 283.933 36.3785C286.963 36.2885 290.213 37.2655 292.263 39.6015C294.403 41.9065 294.927 45.2405 294.803 48.2735C294.517 53.1045 293.236 57.8325 291.438 62.3145C289.754 66.3665 287.784 70.3795 284.795 73.6505C280.782 78.6305 275.419 82.4365 269.543 84.9045C264.37 87.1505 258.783 88.2895 253.193 88.8275C248.62 89.3415 244.006 89.0765 239.413 89.2005C236.525 89.1285 233.657 89.7005 230.766 89.5005C230.158 88.7035 230.693 87.5715 230.935 86.7085C235.438 73.8895 240.028 61.1035 244.534 48.2875C248.082 38.2485 251.505 28.1685 255.08 18.1405C256.029 15.4595 256.609 12.3945 258.873 10.4525Z" fill="#FEF3BB"/>
<path d="M322.706 47.7317C319.756 48.7357 317.54 51.0587 315.608 53.4017C312.609 56.8697 310.204 61.0007 309.52 65.5937C309.158 67.7747 309.079 70.4697 310.773 72.1397C311.694 73.0887 313.092 73.0127 314.31 72.9647C317.726 72.5437 320.808 70.6457 323.137 68.1607C326.395 64.9137 328.4 60.6067 329.552 56.1997C329.835 54.3777 329.759 52.5217 329.732 50.6857C329.804 49.0467 328.465 47.2697 326.733 47.3317C325.384 47.3077 323.983 47.2347 322.706 47.7317ZM321.353 35.0737C323.941 34.9087 326.543 34.5497 329.138 34.8977C334.114 34.7737 339.287 36.1747 343.056 39.5467C345.613 42.0347 347.193 45.4477 347.721 48.9607C349.177 59.5267 345.488 70.6177 338.114 78.3057C335.498 81.0257 332.62 83.5687 329.249 85.3147C322.206 88.9727 313.975 90.4497 306.135 89.0517C302.035 88.4307 297.898 86.8367 294.975 83.8107C292.894 81.5737 291.7 78.6407 291.124 75.6697C290.554 70.6457 291.113 65.5037 292.891 60.7587C295.544 52.4597 300.734 44.8947 307.902 39.8737C311.943 37.2717 316.615 35.7677 321.353 35.0737Z" fill="#FEF3BB"/>
<path d="M214.308 46.6447C217.869 43.6977 222.062 41.2647 226.676 40.5127C229.864 40.4157 233.408 39.9467 236.197 41.8587C238.833 43.6217 239.499 47.0687 239.216 50.0337C238.685 55.3067 236.483 60.2027 234.616 65.1067C231.78 72.9677 228.815 80.7807 225.83 88.5897C225.592 89.1767 225.323 89.8427 224.671 90.0667C222.804 90.4777 220.875 90.4667 219.001 90.8367C215.191 91.1707 211.42 91.9407 207.596 91.9817C207.275 91.3267 207.358 90.5777 207.648 89.9287C211.82 79.3207 215.605 68.5647 219.678 57.9187C220.164 56.5827 220.678 55.2167 220.623 53.7707C220.188 53.4597 219.612 53.0977 219.087 53.4117C217.169 54.2577 215.678 55.7857 214.215 57.2387C211.319 60.0447 209.546 63.7607 208.203 67.5047C205.736 74.2207 203.289 80.9427 200.853 87.6687C200.301 89.0797 200.046 90.6567 199.162 91.9097C197.585 92.9107 195.625 92.8097 193.838 92.9927C190.494 93.4007 187.184 94.0347 183.834 94.3807C183.109 94.4597 182.384 94.3697 181.67 94.2767C181.325 92.8207 181.991 91.4537 182.495 90.1327C186.139 79.6867 189.869 69.2717 193.43 58.7987C193.634 57.8807 194.193 56.9077 193.772 55.9757C192.229 55.8067 190.942 56.8007 189.797 57.6877C186.46 60.4657 183.827 63.9477 181.404 67.5157C177.874 73.1747 176.352 79.7457 174.15 85.9707C173.015 89.1037 172.101 92.3167 170.958 95.4497C170.324 97.0717 168.356 97.1167 166.904 97.3827C162.866 97.5377 158.905 98.7147 154.85 98.5037C154.022 97.6657 154.55 96.5127 154.802 95.5567C157.738 86.2987 160.492 76.9807 162.89 67.5707C163.601 64.4857 164.247 61.3767 164.65 58.2357C164.726 55.8277 165.116 53.4397 164.995 51.0237C164.785 49.0427 166.269 47.3937 167.818 46.3827C171.435 44.0427 175.848 42.6697 180.165 43.4047C181.766 43.8007 183.485 44.5807 184.123 46.2267C184.934 48.2597 184.085 50.3817 183.633 52.3837C184.71 51.5587 185.431 50.3857 186.404 49.4537C188.406 47.3517 190.849 45.7407 193.354 44.3017C197.202 42.0547 201.736 40.8747 206.195 41.2617C208.452 41.4647 210.464 43.0727 211.219 45.2027C211.585 46.7897 211.123 48.3907 210.905 49.9647C212.106 48.9257 213.048 47.6247 214.308 46.6447Z" fill="#FEF3BB"/>
<path d="M137.123 58.2396C134.497 58.8716 132.302 60.6106 130.542 62.5946C127.933 65.6516 125.694 69.0686 124.282 72.8466C123.275 75.5426 122.619 78.5756 123.551 81.3846C124.12 83.0306 125.877 84.0966 127.595 83.9756C130.842 83.8556 133.824 82.1226 136.209 80.0146C140.301 76.1116 143.193 70.8316 143.911 65.1926C144.104 63.0326 143.918 60.4236 142.103 58.9576C140.715 57.8156 138.776 58.0636 137.123 58.2396ZM136.036 45.4336C139.066 44.8986 142.151 44.9506 145.215 45.0606C148.466 45.3576 151.868 46.1996 154.312 48.5046C157.435 51.4686 158.856 55.8106 159.205 60.0096C159.288 63.1086 159.374 66.2176 159.119 69.3066C158.253 74.0236 156.693 78.6686 154.16 82.7576C151.182 87.8686 146.93 92.1786 142.075 95.5226C133.306 101.331 121.894 103.294 111.825 100.023C106.576 98.1696 103.601 92.5926 103.284 87.2686C103.167 83.8936 103.018 80.4526 103.878 77.1536C105.241 70.9426 108.453 65.2756 112.47 60.4036C113.743 58.9296 114.982 57.4116 116.483 56.1586C119.855 53.0836 123.461 50.1576 127.654 48.2736C130.346 47.0586 133.099 45.8856 136.036 45.4336Z" fill="#FEF3BB"/>
<path d="M213.528 117.87C218.476 117.666 223.408 116.966 228.373 117.249C227.959 117.559 227.49 117.794 226.969 117.815C221.562 118.546 216.151 119.295 210.816 120.468C203.003 122.439 195.207 124.516 187.64 127.301C182.146 129.382 176.583 131.287 171.158 133.547C167.245 135.179 163.277 136.66 159.357 138.268C145.619 143.972 131.846 149.649 117.698 154.27C112.173 156.033 106.635 157.772 100.965 159.014C97.8905 159.67 94.8885 160.643 91.7865 161.147C88.2905 161.941 84.7115 162.203 81.1715 162.728C76.7745 163.394 72.3335 163.628 67.9095 164.029C59.9625 164.232 51.9845 163.611 44.2125 161.882C38.5745 160.495 33.1215 158.3 28.1245 155.332C23.6215 152.503 19.7115 148.79 16.4265 144.621C14.4765 141.884 12.7965 138.851 12.0165 135.566C13.3315 136.667 14.3805 138.033 15.6325 139.203C19.4395 142.754 23.6215 145.929 28.2315 148.369C32.0315 150.356 35.9615 152.127 40.0335 153.483C47.3665 155.836 55.0695 156.671 62.7165 157.148C69.8935 157.292 77.0195 156.337 84.1455 155.546C90.2055 154.887 96.0785 153.193 101.993 151.788C109.016 149.959 115.879 147.578 122.76 145.284C142.989 138.392 162.714 130.017 183.271 124.106C189.189 122.629 195.052 120.931 201.046 119.789C205.201 119.116 209.346 118.367 213.528 117.87Z" fill="#D2EB32"/>
<path d="M133.698 116.377C126.996 117.833 120.267 119.162 113.511 120.352C102.043 122.375 90.3797 123.475 78.7327 122.858C75.2297 122.523 71.7587 121.881 68.3767 120.911C63.8427 119.307 59.2357 117.436 55.6807 114.086C51.4567 110.428 48.8517 105.224 47.6197 99.8366C46.6117 95.3676 46.6537 90.7506 46.8537 86.1986C47.1847 82.6206 48.0067 79.1106 48.8827 75.6326C51.7367 65.0796 57.5237 55.4966 64.7537 47.3666C67.2657 44.3296 70.2437 41.7346 72.9937 38.9226C79.2777 33.5976 85.7347 28.2146 93.3327 24.8496C99.1267 22.1896 105.077 19.8046 111.25 18.1616C113.69 17.4576 116.264 17.5306 118.77 17.7096C120.692 18.3036 120.574 20.6186 120.219 22.2066C119.191 25.6676 116.996 28.6456 114.504 31.2066C110.826 35.4576 106.253 38.8226 102.564 43.0666C101.036 44.8236 100.052 47.0216 99.6517 49.3096C99.5037 51.2416 99.3687 53.5816 100.956 55.0036C102.123 56.2936 104.014 56.1486 105.577 55.9076C109.78 54.7346 113.459 52.2946 117.137 50.0306C122.855 46.1066 128.232 41.6136 132.756 36.3376C135.907 32.8766 138.339 28.8116 140.079 24.4766C141.114 21.3886 141.801 18.0306 141.062 14.7976C140.534 11.8196 138.836 8.93059 136.141 7.44759C133.881 6.12559 131.272 5.64258 128.749 5.09058C125.209 4.70058 121.641 4.44158 118.083 4.70758C116.116 5.00358 114.111 4.82758 112.161 5.25958C101.892 6.55658 91.9807 9.86658 82.5387 14.0316C77.8767 16.0086 73.5047 18.5796 69.0807 21.0226C61.9027 25.2676 54.9807 29.9776 48.6447 35.4056C46.3987 37.4076 43.9277 39.2086 41.9807 41.5106C41.6187 41.5106 41.3777 41.7966 41.1287 42.0146C32.8057 50.1516 25.1097 59.0476 19.2087 69.1236C13.6837 78.1856 9.54269 88.3106 8.54969 98.9496C8.14169 106.587 8.41469 114.455 11.2237 121.664C13.7357 128.382 18.0017 134.428 23.5227 139.008C27.2497 142.12 31.4837 144.56 35.8907 146.568C40.2587 148.273 44.7037 149.892 49.3627 150.589C56.6027 152.318 64.1007 152.09 71.4927 151.976C74.4917 152.021 77.4347 151.327 80.4267 151.199C82.8047 150.778 85.2097 150.506 87.5767 150.019C94.6617 148.787 101.567 146.734 108.417 144.591C122.61 139.884 136.68 134.818 150.797 129.894C163.42 125.408 176.143 121.139 189.143 117.871C190.899 117.476 192.652 117.071 194.406 116.666L194.396 116.697L205.993 114.297C206.342 114.233 206.69 114.158 207.037 114.081L207.099 114.068C207.417 113.998 207.736 113.934 208.055 113.872L191.509 101.247C172.193 106.11 153.134 111.976 133.698 116.377Z" fill="#FBD002"/>
<path d="M314.446 122.422C312.589 121.19 311.375 119.278 309.691 117.863C308.587 116.876 307.306 116.059 306.475 114.809C309.328 115.831 311.585 117.991 313.918 119.855C315.654 121.552 317.652 123.074 318.936 125.165C317.217 124.668 315.899 123.395 314.446 122.422ZM342.163 132.781C341.414 127.584 338.578 122.884 334.916 119.206C330.109 114.219 324.112 110.548 317.897 107.58C311.489 104.709 304.884 102.245 298.058 100.571C284.603 97.1074 270.769 95.2054 256.896 94.6364C239.642 94.3044 222.25 94.6254 205.285 98.1004C204.678 98.2554 204.056 98.3614 203.435 98.4654L203.424 98.4194L202.94 98.5494C201.864 98.7304 200.795 98.9354 199.799 99.3914C198.422 99.4574 197.103 99.8884 195.768 100.178C194.345 100.523 192.928 100.889 191.509 101.246L208.055 113.871C208.173 113.848 208.29 113.818 208.408 113.798C216.98 112.335 225.673 111.466 234.376 111.493C239.611 111.49 244.87 111.407 250.064 112.176C256.151 112.753 262.1 114.513 267.584 117.201C271.58 119.189 275.099 122.004 278.302 125.09C282.998 129.765 286.273 135.577 290.028 140.977C294.069 146.602 299.311 151.599 305.847 154.149C309.415 155.698 313.366 155.833 317.196 155.754C322.252 155.768 327.359 154.687 331.818 152.251C336.883 149.715 341.214 145.08 342.167 139.348C342.367 137.167 342.374 134.959 342.163 132.781Z" fill="#D70832"/>
</svg>
